<?xml version="1.0" encoding="UTF-8" standalone="no"?>
<svg
   xmlns:dc="http://purl.org/dc/elements/1.1/"
   xmlns:cc="http://creativecommons.org/ns#"
   xmlns:rdf="http://www.w3.org/1999/02/22-rdf-syntax-ns#"
   xmlns:svg="http://www.w3.org/2000/svg"
   xmlns="http://www.w3.org/2000/svg"
   xmlns:sodipodi="http://sodipodi.sourceforge.net/DTD/sodipodi-0.dtd"
   xmlns:inkscape="http://www.inkscape.org/namespaces/inkscape"
   inkscape:version="1.0beta2 (2b71d25, 2019-12-03)"
   sodipodi:docname="dechairman.svg"
   id="svg8"
   version="1.1"
   viewBox="0 0 210 297"
   height="597mm"
   width="510mm">
  <defs
     id="defs2">
    <inkscape:perspective
       id="perspective35"
       inkscape:persp3d-origin="74.761904 : 83.291667 : 1"
       inkscape:vp_z="216.04762 : 114.64881 : 1"
       inkscape:vp_y="0 : 1000 : 0"
       inkscape:vp_x="-40.065477 : 125.9881 : 1"
       sodipodi:type="inkscape:persp3d" />
  </defs>
  <sodipodi:namedview
     inkscape:window-maximized="0"
     inkscape:window-y="106"
     inkscape:window-x="4012"
     inkscape:window-height="880"
     inkscape:window-width="1600"
     showgrid="false"
     inkscape:document-rotation="0"
     inkscape:current-layer="layer1"
     inkscape:document-units="mm"
     inkscape:cy="673.42245"
     inkscape:cx="435.50726"
     inkscape:zoom="0.76513757"
     inkscape:pageshadow="2"
     inkscape:pageopacity="0.0"
     borderopacity="1.0"
     bordercolor="#666666"
     pagecolor="#ffffff"
     id="base" />
  <metadata
     id="metadata5">
    <rdf:RDF>
      <cc:Work
         rdf:about="">
        <dc:format>image/svg+xml</dc:format>
        <dc:type
           rdf:resource="http://purl.org/dc/dcmitype/StillImage" />
        <dc:title></dc:title>
      </cc:Work>
    </rdf:RDF>
  </metadata>
  <g
     id="layer1"
     inkscape:groupmode="layer"
     inkscape:label="Layer 1">
    <rect
       y="162.22839"
       x="85.296623"
       height="88.446426"
       width="111.125"
       id="rect33"
       style="fill:#2b0000;stroke-width:0.264583" />
    <g
       inkscape:corner7="-0.34073754 : -0.014705044 : 0.25 : 1"
       inkscape:corner0="0.54963197 : 0.036745602 : 0 : 1"
       inkscape:perspectiveID="#perspective35"
       style="fill:#2b0000"
       id="g37"
       sodipodi:type="inkscape:box3d">
      <path
         points="156.63863,180.6743 156.63863,237.25933 59.319098,204.48336 59.319098,175.89382 "
         d="m 59.319098,175.89382 97.319532,4.78048 v 56.58503 L 59.319098,204.48336 Z"
         inkscape:box3dsidetype="11"
         style="fill:#e9e9ff;fill-rule:evenodd;stroke:none;stroke-linejoin:round"
         id="path49"
         sodipodi:type="inkscape:box3dside" />
      <path
         points="34.034299,208.05391 59.319098,204.48336 59.319098,175.89382 34.034299,174.85206 "
         d="m 34.034299,174.85206 v 33.20185 l 25.284799,-3.57055 v -28.58954 z"
         inkscape:box3dsidetype="6"
         style="fill:#353564;fill-rule:evenodd;stroke:none;stroke-linejoin:round"
         id="path39"
         sodipodi:type="inkscape:box3dside" />
      <path
         points="134.11004,258.08113 156.63863,237.25933 59.319098,204.48336 34.034299,208.05391 "
         d="m 34.034299,208.05391 100.075741,50.02722 22.52859,-20.8218 -97.319532,-32.77597 z"
         inkscape:box3dsidetype="13"
         style="fill:#afafde;fill-rule:evenodd;stroke:none;stroke-linejoin:round"
         id="path47"
         sodipodi:type="inkscape:box3dside" />
      <path
         points="134.11004,180.0384 156.63863,180.6743 59.319098,175.89382 34.034299,174.85206 "
         d="m 34.034299,174.85206 100.075741,5.18634 22.52859,0.6359 -97.319532,-4.78048 z"
         inkscape:box3dsidetype="5"
         style="fill:#4d4d9f;fill-rule:evenodd;stroke:none;stroke-linejoin:round"
         id="path41"
         sodipodi:type="inkscape:box3dside" />
      <path
         points="134.11004,258.08113 156.63863,237.25933 156.63863,180.6743 134.11004,180.0384 "
         d="m 134.11004,180.0384 v 78.04273 l 22.52859,-20.8218 V 180.6743 Z"
         inkscape:box3dsidetype="14"
         style="fill:#d7d7ff;fill-rule:evenodd;stroke:none;stroke-linejoin:round"
         id="path45"
         sodipodi:type="inkscape:box3dside" />
      <path
         points="134.11004,180.0384 134.11004,258.08113 34.034299,208.05391 34.034299,174.85206 "
         d="m 34.034299,174.85206 100.075741,5.18634 v 78.04273 L 34.034299,208.05391 Z"
         inkscape:box3dsidetype="3"
         style="fill:#8686bf;fill-rule:evenodd;stroke:none;stroke-linejoin:round"
         id="path43"
         sodipodi:type="inkscape:box3dside" />
    </g>
    <g
       inkscape:corner7="-0.36177464 : -0.014312098 : 0.33913371 : 1"
       inkscape:corner0="-0.27355895 : 0.11227819 : 0 : 1"
       inkscape:perspectiveID="#perspective35"
       style="fill:#2b0000"
       id="g163"
       sodipodi:type="inkscape:box3d">
      <path
         points="166.29059,103.75288 166.29059,233.27568 149.207,228.12105 149.207,109.32105 "
         d="m 149.207,109.32105 17.08359,-5.56817 v 129.5228 L 149.207,228.12105 Z"
         inkscape:box3dsidetype="11"
         style="fill:#e9e9ff;fill-rule:evenodd;stroke:none;stroke-linejoin:round"
         id="path175"
         sodipodi:type="inkscape:box3dside" />
      <path
         points="118.00293,249.48837 149.207,228.12105 149.207,109.32105 118.00293,75.227455 "
         d="M 118.00293,75.227455 V 249.48837 L 149.207,228.12105 v -118.8 z"
         inkscape:box3dsidetype="6"
         style="fill:#353564;fill-rule:evenodd;stroke:none;stroke-linejoin:round"
         id="path165"
         sodipodi:type="inkscape:box3dside" />
      <path
         points="139.8512,260.33541 166.29059,233.27568 149.207,228.12105 118.00293,249.48837 "
         d="m 118.00293,249.48837 21.84827,10.84704 26.43939,-27.05973 -17.08359,-5.15463 z"
         inkscape:box3dsidetype="13"
         style="fill:#afafde;fill-rule:evenodd;stroke:none;stroke-linejoin:round"
         id="path173"
         sodipodi:type="inkscape:box3dside" />
      <path
         points="139.8512,61.988102 166.29059,103.75288 149.207,109.32105 118.00293,75.227455 "
         d="M 118.00293,75.227455 139.8512,61.988102 166.29059,103.75288 149.207,109.32105 Z"
         inkscape:box3dsidetype="5"
         style="fill:#4d4d9f;fill-rule:evenodd;stroke:none;stroke-linejoin:round"
         id="path167"
         sodipodi:type="inkscape:box3dside" />
      <path
         points="139.8512,260.33541 166.29059,233.27568 166.29059,103.75288 139.8512,61.988102 "
         d="M 139.8512,61.988102 V 260.33541 l 26.43939,-27.05973 v -129.5228 z"
         inkscape:box3dsidetype="14"
         style="fill:#d7d7ff;fill-rule:evenodd;stroke:none;stroke-linejoin:round"
         id="path171"
         sodipodi:type="inkscape:box3dside" />
      <path
         points="139.8512,61.988102 139.8512,260.33541 118.00293,249.48837 118.00293,75.227455 "
         d="M 118.00293,75.227455 139.8512,61.988102 V 260.33541 l -21.84827,-10.84704 z"
         inkscape:box3dsidetype="3"
         style="fill:#8686bf;fill-rule:evenodd;stroke:none;stroke-linejoin:round"
         id="path169"
         sodipodi:type="inkscape:box3dside" />
    </g>
    <g
       inkscape:corner7="-0.41907702 : 0.020203921 : 0.25 : 1"
       inkscape:corner0="-0.36533017 : 0.028999862 : 0 : 1"
       inkscape:perspectiveID="#perspective35"
       style="fill:#2b0000"
       id="g177"
       sodipodi:type="inkscape:box3d">
      <path
         points="175.18391,190.90712 175.18391,201.49287 162.10674,199.64104 162.10674,189.69842 "
         d="m 162.10674,189.69842 13.07717,1.2087 v 10.58575 l -13.07717,-1.85183 z"
         inkscape:box3dsidetype="11"
         style="fill:#e9e9ff;fill-rule:evenodd;stroke:none;stroke-linejoin:round"
         id="path189"
         sodipodi:type="inkscape:box3dside" />
      <path
         points="140.85912,206.45161 162.10674,199.64104 162.10674,189.69842 140.85912,192.59253 "
         d="m 140.85912,192.59253 v 13.85908 l 21.24762,-6.81057 v -9.94262 z"
         inkscape:box3dsidetype="6"
         style="fill:#353564;fill-rule:evenodd;stroke:none;stroke-linejoin:round"
         id="path179"
         sodipodi:type="inkscape:box3dside" />
      <path
         points="157.59822,209.73048 175.18391,201.49287 162.10674,199.64104 140.85912,206.45161 "
         d="m 140.85912,206.45161 16.7391,3.27887 17.58569,-8.23761 -13.07717,-1.85183 z"
         inkscape:box3dsidetype="13"
         style="fill:#afafde;fill-rule:evenodd;stroke:none;stroke-linejoin:round"
         id="path187"
         sodipodi:type="inkscape:box3dside" />
      <path
         points="157.59822,194.58916 175.18391,190.90712 162.10674,189.69842 140.85912,192.59253 "
         d="m 140.85912,192.59253 16.7391,1.99663 17.58569,-3.68204 -13.07717,-1.2087 z"
         inkscape:box3dsidetype="5"
         style="fill:#4d4d9f;fill-rule:evenodd;stroke:none;stroke-linejoin:round"
         id="path181"
         sodipodi:type="inkscape:box3dside" />
      <path
         points="157.59822,209.73048 175.18391,201.49287 175.18391,190.90712 157.59822,194.58916 "
         d="m 157.59822,194.58916 v 15.14132 l 17.58569,-8.23761 v -10.58575 z"
         inkscape:box3dsidetype="14"
         style="fill:#d7d7ff;fill-rule:evenodd;stroke:none;stroke-linejoin:round"
         id="path185"
         sodipodi:type="inkscape:box3dside" />
      <path
         points="157.59822,194.58916 157.59822,209.73048 140.85912,206.45161 140.85912,192.59253 "
         d="m 140.85912,192.59253 16.7391,1.99663 v 15.14132 l -16.7391,-3.27887 z"
         inkscape:box3dsidetype="3"
         style="fill:#8686bf;fill-rule:evenodd;stroke:none;stroke-linejoin:round"
         id="path183"
         sodipodi:type="inkscape:box3dside" />
    </g>
    <g
       inkscape:corner7="-0.44964623 : 0.042372117 : 0.25 : 1"
       inkscape:corner0="-0.36177464 : 0.055829437 : 0 : 1"
       inkscape:perspectiveID="#perspective35"
       style="fill:#2b0000"
       id="g191"
       sodipodi:type="inkscape:box3d">
      <path
         points="183.40527,158.14487 183.40527,174.95908 161.29745,174.56859 161.29745,159.4178 "
         d="m 161.29745,159.4178 22.10782,-1.27293 v 16.81421 l -22.10782,-0.39049 z"
         inkscape:box3dsidetype="11"
         style="fill:#e9e9ff;fill-rule:evenodd;stroke:none;stroke-linejoin:round"
         id="path203"
         sodipodi:type="inkscape:box3dside" />
      <path
         points="139.8512,171.52006 161.29745,174.56859 161.29745,159.4178 139.8512,150.43453 "
         d="m 139.8512,150.43453 v 21.08553 l 21.44625,3.04853 V 159.4178 Z"
         inkscape:box3dsidetype="6"
         style="fill:#353564;fill-rule:evenodd;stroke:none;stroke-linejoin:round"
         id="path193"
         sodipodi:type="inkscape:box3dside" />
      <path
         points="168.57738,147.14906 183.40527,158.14487 161.29745,159.4178 139.8512,150.43453 "
         d="m 139.8512,150.43453 28.72618,-3.28547 14.82789,10.99581 -22.10782,1.27293 z"
         inkscape:box3dsidetype="5"
         style="fill:#4d4d9f;fill-rule:evenodd;stroke:none;stroke-linejoin:round"
         id="path195"
         sodipodi:type="inkscape:box3dside" />
      <path
         points="168.57738,171.60119 183.40527,174.95908 161.29745,174.56859 139.8512,171.52006 "
         d="m 139.8512,171.52006 28.72618,0.0811 14.82789,3.35789 -22.10782,-0.39049 z"
         inkscape:box3dsidetype="13"
         style="fill:#afafde;fill-rule:evenodd;stroke:none;stroke-linejoin:round"
         id="path201"
         sodipodi:type="inkscape:box3dside" />
      <path
         points="168.57738,171.60119 183.40527,174.95908 183.40527,158.14487 168.57738,147.14906 "
         d="m 168.57738,147.14906 v 24.45213 l 14.82789,3.35789 v -16.81421 z"
         inkscape:box3dsidetype="14"
         style="fill:#d7d7ff;fill-rule:evenodd;stroke:none;stroke-linejoin:round"
         id="path199"
         sodipodi:type="inkscape:box3dside" />
      <path
         points="168.57738,147.14906 168.57738,171.60119 139.8512,171.52006 139.8512,150.43453 "
         d="m 139.8512,150.43453 28.72618,-3.28547 v 24.45213 l -28.72618,-0.0811 z"
         inkscape:box3dsidetype="3"
         style="fill:#8686bf;fill-rule:evenodd;stroke:none;stroke-linejoin:round"
         id="path197"
         sodipodi:type="inkscape:box3dside" />
    </g>
    <g
       inkscape:corner7="-0.42013209 : -0.028831847 : 0.25 : 1"
       inkscape:corner0="-0.35680726 : -0.0041090049 : 0 : 1"
       inkscape:perspectiveID="#perspective35"
       style="fill:#2b0000"
       id="g205"
       sodipodi:type="inkscape:box3d">
      <path
         points="175.45757,230.82896 175.45757,260.62026 160.1776,254.26728 160.1776,226.5881 "
         d="m 160.1776,226.5881 15.27997,4.24086 v 29.7913 l -15.27997,-6.35298 z"
         inkscape:box3dsidetype="11"
         style="fill:#e9e9ff;fill-rule:evenodd;stroke:none;stroke-linejoin:round"
         id="path217"
         sodipodi:type="inkscape:box3dside" />
      <path
         points="138.4617,282.22006 160.1776,254.26728 160.1776,226.5881 138.4617,243.78237 "
         d="m 138.4617,243.78237 v 38.43769 l 21.7159,-27.95278 V 226.5881 Z"
         inkscape:box3dsidetype="6"
         style="fill:#353564;fill-rule:evenodd;stroke:none;stroke-linejoin:round"
         id="path207"
         sodipodi:type="inkscape:box3dside" />
      <path
         points="157.95787,294.36461 175.45757,260.62026 160.1776,254.26728 138.4617,282.22006 "
         d="m 138.4617,282.22006 19.49617,12.14455 17.4997,-33.74435 -15.27997,-6.35298 z"
         inkscape:box3dsidetype="13"
         style="fill:#afafde;fill-rule:evenodd;stroke:none;stroke-linejoin:round"
         id="path215"
         sodipodi:type="inkscape:box3dside" />
      <path
         points="157.95787,251.72931 175.45757,230.82896 160.1776,226.5881 138.4617,243.78237 "
         d="m 138.4617,243.78237 19.49617,7.94694 17.4997,-20.90035 -15.27997,-4.24086 z"
         inkscape:box3dsidetype="5"
         style="fill:#4d4d9f;fill-rule:evenodd;stroke:none;stroke-linejoin:round"
         id="path209"
         sodipodi:type="inkscape:box3dside" />
      <path
         points="157.95787,294.36461 175.45757,260.62026 175.45757,230.82896 157.95787,251.72931 "
         d="m 157.95787,251.72931 v 42.6353 l 17.4997,-33.74435 v -29.7913 z"
         inkscape:box3dsidetype="14"
         style="fill:#d7d7ff;fill-rule:evenodd;stroke:none;stroke-linejoin:round"
         id="path213"
         sodipodi:type="inkscape:box3dside" />
      <path
         points="157.95787,251.72931 157.95787,294.36461 138.4617,282.22006 138.4617,243.78237 "
         d="m 138.4617,243.78237 19.49617,7.94694 v 42.6353 L 138.4617,282.22006 Z"
         inkscape:box3dsidetype="3"
         style="fill:#8686bf;fill-rule:evenodd;stroke:none;stroke-linejoin:round"
         id="path211"
         sodipodi:type="inkscape:box3dside" />
    </g>
  </g>
</svg>
